<?xml version="1.0" encoding="UTF-8"?>
<svg version="1.1" xmlns="http://www.w3.org/2000/svg" width="500" height="500">
<path d="M0 0 C7.07148983 4.73122621 12.39519105 9.91910417 16.8125 17.1875 C19.13715253 20.23012431 20.85556687 21.7293498 24.61181641 22.61767578 C27.80165545 23.02391675 30.91022048 23.1899129 34.125 23.25 C35.17534424 23.28375732 36.22568848 23.31751465 37.30786133 23.35229492 C41.71171192 23.22816892 44.78749415 23.08765867 48.14819336 20.07299805 C49.91686348 17.786957 51.46882918 15.44955498 53 13 C61.02982272 3.79774137 70.85559296 -3.54823857 83.2109375 -5.31640625 C92.85992791 -5.8411759 100.56060814 -1.27193935 107.734375 4.78515625 C114.28457149 11.18853799 117.97178404 18.20183699 118.375 27.375 C118.24244904 33.47234407 116.79046825 38.07523114 112.5390625 42.53125 C106.98563855 47.37992472 102.90749479 48.40931172 95.6875 48.24609375 C90.44699732 47.76622214 87.82548471 45.86300675 84.25 42.125 C80.316286 36.66150834 79.26086181 32.65224368 80 26 C82.0625 23.4375 82.0625 23.4375 85 22 C88.49672962 22.06028844 90.8982551 22.30222823 93.875 24.1875 C95.43432705 26.69974914 95.67683438 29.09150946 96 32 C97.65 32 99.3 32 101 32 C101.68048349 25.64882078 100.69094873 22.72635789 96.703125 17.76171875 C93.08981779 14.02410052 90.2869571 12.19950782 85 12 C73.68711868 14.00643556 66.35342435 21.99080341 60 31 C60.36351562 31.51046875 60.72703125 32.0209375 61.1015625 32.546875 C67.84932532 42.30517815 74.81022687 53.77085614 75.03735352 66.01342773 C75.06311296 68.45149709 75.06311296 68.45149709 76 72 C78.60949102 73.6979345 80.4428788 74.58995739 83.3125 75.5625 C84.78343737 76.13372192 86.25218403 76.71061533 87.71875 77.29296875 C88.44707031 77.57575684 89.17539062 77.85854492 89.92578125 78.14990234 C99.4497863 82.05321985 107.26438911 88.36242638 115 95 C115.61230469 95.46664062 116.22460938 95.93328125 116.85546875 96.4140625 C137.12915669 112.11292774 147.33388539 139.2503973 150.53515625 163.796875 C151.75146031 174.25387098 152.55901637 189.23856882 146 198 C131.40722846 204.7873356 111.07874191 201.2435706 96 198 C96.02320313 199.1859375 96.04640625 200.371875 96.0703125 201.59375 C96.50484553 233.01734904 88.82527414 261.39844893 66.77929688 284.73901367 C59.2816298 292.41066508 51.25194125 298.58950804 42 304 C41.01128906 304.60328125 40.02257812 305.2065625 39.00390625 305.828125 C35.12319469 307.34205669 33.01746508 307.03520208 29 306 C26.50675326 304.85820632 24.31718029 303.73351253 22 302.3125 C21.3591748 301.92239746 20.71834961 301.53229492 20.05810547 301.13037109 C-3.6575259 286.03860568 -19.27120406 262.08833448 -25.75 235.0625 C-27.65744664 226.46790034 -28.13021489 218.33939198 -28.0625 209.5625 C-28.05798828 208.44939453 -28.05347656 207.33628906 -28.04882812 206.18945312 C-28.03711193 203.45957899 -28.02070699 200.72981826 -28 198 C-28.99515625 198.2165625 -29.9903125 198.433125 -31.015625 198.65625 C-45.09115196 201.53246428 -66.26048773 205.16173225 -79.0625 197.0625 C-86.90689705 184.66329177 -83.77560515 163.89612463 -80.91113281 150.24072266 C-78.97787574 141.99096377 -75.7910824 134.5488366 -72 127 C-71.52691406 126.01773438 -71.05382812 125.03546875 -70.56640625 124.0234375 C-58.46262427 100.22733355 -36.04389206 81.85966059 -11 73 C-10.01 73 -9.02 73 -8 73 C-7.90203125 71.97261719 -7.8040625 70.94523437 -7.703125 69.88671875 C-6.1298116 54.77193354 -1.74688026 42.88951343 8 31 C-1.87864226 19.25462952 -1.87864226 19.25462952 -15.125 12 C-20.89199381 12 -24.65991841 13.35807065 -28.8125 17.3125 C-31.3151987 20.0289123 -33.22275568 22.30808947 -34 26 C-33.70480232 28.7336432 -33.70480232 28.7336432 -33 31 C-32.01 31.33 -31.02 31.66 -30 32 C-29.61908203 31.16855469 -29.61908203 31.16855469 -29.23046875 30.3203125 C-28.88628906 29.59585938 -28.54210937 28.87140625 -28.1875 28.125 C-27.85105469 27.40570313 -27.51460937 26.68640625 -27.16796875 25.9453125 C-26 24 -26 24 -23 22 C-19.02120782 21.39453162 -17.45249499 21.70154586 -14.0625 23.9375 C-11.5819408 27.62075456 -11.46965083 29.3158132 -12.2265625 33.5859375 C-14.00521615 39.13749284 -17.07704397 43.52424305 -21.6875 47.0625 C-27.60320618 48.73675647 -33.36202209 48.81168551 -39.25 47 C-45.02837529 42.79754525 -49.02465164 38.64355368 -50.5625 31.5 C-51.63845519 22.82062811 -48.86149913 16.13791539 -44 9 C-32.14377538 -5.42989289 -16.54624392 -8.83872358 0 0 Z M18 44 C16.68834743 46.11660427 16.68834743 46.11660427 16 48 C16.763125 48.391875 17.52625 48.78375 18.3125 49.1875 C21.38148487 51.25728049 22.60034869 52.57863014 24 56 C23.93156456 59.90082013 23.58233572 62.1804164 21.3125 65.375 C17.1780816 68.28026698 12.88518351 68.03306385 8 68 C7.29211546 79.85051153 9.78647057 90.42887802 17 100 C21.42267349 104.86728087 26.90442911 107.66230136 33.4375 108.375 C41.06813862 107.57177488 45.89036176 105.00483199 51.171875 99.390625 C57.02268283 91.73956861 59.17847085 83.68824317 59.0625 74.25 C59.05798828 73.55261719 59.05347656 72.85523438 59.04882812 72.13671875 C59.0371002 70.42444197 59.01916653 68.71220967 59 67 C57.91332031 67.19078125 56.82664062 67.3815625 55.70703125 67.578125 C51.35373609 68.07354742 49.62571629 67.36093154 46 65 C43.55200315 61.32800472 43.16665879 58.26670698 44 54 C46.44298288 50.96277803 48.7663665 49.15575567 52 47 C45.97189359 41.12225452 41.96802232 37.76513107 33.5625 36.6875 C27.55135394 37.42056659 22.3610913 39.76717609 18 44 Z M-41.25 110.875 C-55.42632758 125.30255363 -67.10655595 146.56795815 -67.1328125 167.265625 C-67.13410156 168.23757813 -67.13539063 169.20953125 -67.13671875 170.2109375 C-67.13285156 171.21382813 -67.12898437 172.21671875 -67.125 173.25 C-67.12886719 174.26835937 -67.13273438 175.28671875 -67.13671875 176.3359375 C-67.13542969 177.30273438 -67.13414062 178.26953125 -67.1328125 179.265625 C-67.13168457 180.15024414 -67.13055664 181.03486328 -67.12939453 181.94628906 C-67.22769098 183.99272375 -67.22769098 183.99272375 -66 185 C-45.61944311 186.93604609 -28.62991409 182.92819249 -11 173 C-10.03707031 172.48953125 -9.07414062 171.9790625 -8.08203125 171.453125 C5.73083836 163.53673887 16.31972301 150.72918249 24 137 C24.60521484 135.97712891 24.60521484 135.97712891 25.22265625 134.93359375 C26.2231221 132.4449978 26.19530161 130.42146131 26.125 127.75 C26.10695313 126.85796875 26.08890625 125.9659375 26.0703125 125.046875 C26.04710937 124.37140625 26.02390625 123.6959375 26 123 C24.62328125 122.38125 24.62328125 122.38125 23.21875 121.75 C9.21033815 115.24991358 1.69005717 106.93695256 -3.875 92.3125 C-4.24625 91.219375 -4.6175 90.12625 -5 89 C-17.79548445 89 -32.68049767 102.45434759 -41.25 110.875 Z M73 89 C72.731875 89.73863281 72.46375 90.47726563 72.1875 91.23828125 C66.96782948 104.75104671 59.375264 115.37155011 45.9375 121.4375 C44.63031982 121.97154455 43.31970433 122.49770119 42 123 C40.646881 133.91086432 44.81919702 140.43784208 51.22265625 148.95703125 C53.4145622 151.70537301 55.67201774 154.3663654 58 157 C58.55171875 157.63550781 59.1034375 158.27101563 59.671875 158.92578125 C73.0852132 173.36836075 94.38678315 183.89419913 114.09570312 185.20605469 C120.73667699 185.40869468 127.36339763 185.29096125 134 185 C138.27580736 164.70276815 131.73572333 143.22463718 121 126 C118.8174489 122.86028192 116.47106365 119.9166653 114 117 C113.3090625 116.175 112.618125 115.35 111.90625 114.5 C102.36748163 103.48339428 89.97875738 93.76384503 76 89 C75.01 89 74.02 89 73 89 Z M33 151 C32.01584975 152.39885507 31.06438413 153.82069783 30.125 155.25 C24.91091922 162.80772947 18.78040961 169.96768666 11.66015625 175.79296875 C10.34337891 176.88544922 10.34337891 176.88544922 9 178 C9 178.33 9 178.66 9 179 C17.23363345 180.61508717 25.1162254 181.31248776 33.5 181.25 C35.05654297 181.26160156 35.05654297 181.26160156 36.64453125 181.2734375 C43.93633528 181.2552761 50.84852493 180.40281392 58 179 C54.56276513 174.83913674 51.00773356 171.00091236 47.125 167.25 C42.6655038 162.8647163 39.03789001 158.19991265 35.49609375 153.0546875 C35.00238281 152.37664062 34.50867188 151.69859375 34 151 C33.67 151 33.34 151 33 151 Z M-10 190 C-11.44524884 194.42605006 -11.44524884 194.42605006 -12 199 C15.93526285 208.08069338 51.43969988 212.78015006 79 199 C79.26932521 194.34947128 79.26932521 194.34947128 78 190 C71.81444782 190.78859629 65.82705106 192.11873105 59.75976562 193.5390625 C39.33470718 198.21362754 16.56162441 197.56531991 -3.37109375 190.8671875 C-6.17173734 189.79115805 -6.17173734 189.79115805 -10 190 Z M68.41796875 217.9296875 C57.79978881 220.60853531 47.54625575 221.34649617 36.64770508 221.31567383 C34.33300975 221.31252788 32.01961538 221.33601249 29.70507812 221.36132812 C19.16318009 221.40505418 9.31283237 220.11270771 -1 218 C-3.18653313 217.59886021 -5.37391686 217.20230008 -7.5625 216.8125 C-9.026875 216.544375 -10.49125 216.27625 -12 216 C-11.67 219.3 -11.34 222.6 -11 226 C16.21422906 235.52498017 51.90130977 236.02651539 79 226 C79.33 222.37 79.66 218.74 80 215 C76.39580142 215 71.86848977 216.96425675 68.41796875 217.9296875 Z M-6 244 C-5.38991336 246.01797888 -4.71143088 248.01548229 -4 250 C-3.70480469 250.8559375 -3.40960938 251.711875 -3.10546875 252.59375 C0.36461477 256.55955974 4.82009716 256.32164512 9.875 256.8125 C10.94838623 256.92940186 12.02177246 257.04630371 13.12768555 257.16674805 C41.57464391 260.09215183 41.57464391 260.09215183 69 254 C70.77278457 251.65510379 70.77278457 251.65510379 71.875 248.875 C72.28492188 247.96492187 72.69484375 247.05484375 73.1171875 246.1171875 C73.40851563 245.41851562 73.69984375 244.71984375 74 244 C67.23681504 244.64270926 67.23681504 244.64270926 60.5 245.51171875 C40.54948897 248.30241523 20.76401192 247.68009126 0.94628906 244.28125 C-1.38538247 243.94431001 -3.64811053 243.88573816 -6 244 Z M12 272 C13.81052265 275.99709319 16.38093256 278.28831158 19.75 281 C20.26304687 281.42539062 20.77609375 281.85078125 21.3046875 282.2890625 C27.22853334 287.73199151 27.22853334 287.73199151 34.50390625 290.0078125 C37.71953949 288.70948171 40.17510795 286.97256925 42.9375 284.875 C43.93652344 284.12992187 44.93554688 283.38484375 45.96484375 282.6171875 C49.43002072 279.80929679 52.20473077 276.45761706 55 273 C54.12375977 273.00523682 53.24751953 273.01047363 52.34472656 273.01586914 C49.03466102 273.03310452 45.72464447 273.0455429 42.41455078 273.05493164 C40.99299356 273.05990212 39.57144128 273.06668084 38.14990234 273.07543945 C29.38565643 273.12801256 20.72733736 272.92025062 12 272 Z " fill="#0CBFDD" transform="translate(221,96)"/>
<path d="M0 0 C1.80868813 0.00333092 1.80868813 0.00333092 3.65391541 0.00672913 C4.31730423 0.0065831 4.98069305 0.00643707 5.66418457 0.00628662 C7.86644207 0.00698571 10.06861596 0.01477787 12.27085876 0.02259827 C13.79400588 0.02446246 15.31715359 0.02588636 16.84030151 0.02688599 C20.85657903 0.03071105 24.87282059 0.04054124 28.88908386 0.05158997 C32.98443617 0.06180433 37.07979427 0.06638366 41.17515564 0.07142639 C49.21618779 0.08216352 57.25719069 0.0992398 65.29820251 0.12025452 C64.97601746 1.22578674 64.6538324 2.33131897 64.32188416 3.47035217 C63.54537829 6.23895764 62.99917504 8.65872049 62.73570251 11.49525452 C62.29820251 15.12025452 62.29820251 15.12025452 61.29820251 16.12025452 C59.6305261 16.15438988 57.96137428 16.11884662 56.29454041 16.05580139 C50.28713361 15.8594933 44.28371849 15.75803227 38.27354431 15.68910217 C35.68042626 15.64347546 33.08764217 15.56926455 30.49620056 15.46546936 C16.75720299 14.33736585 16.75720299 14.33736585 4.22987366 18.64744568 C0.81529183 22.57068594 -1.06533715 27.05862709 -2.84056091 31.90119934 C-4.1200563 35.19793679 -5.87228779 38.0261787 -7.71351624 41.04603577 C-8.93954301 43.17450076 -10.16481907 45.30339839 -11.38929749 47.43275452 C-12.62207502 49.57485162 -13.85514657 51.71677955 -15.08851624 53.85853577 C-15.67681213 54.89059143 -16.26510803 55.92264709 -16.87123108 56.98597717 C-18.13547739 59.15060696 -19.44365883 61.28995906 -20.78627014 63.40687561 C-21.44546448 64.46084534 -22.10465881 65.51481506 -22.78382874 66.60072327 C-23.39073547 67.54198059 -23.99764221 68.48323792 -24.62294006 69.45301819 C-25.98331179 72.05833628 -25.98331179 72.05833628 -25.05702209 74.64564514 C-24.60979797 75.46226624 -24.16257385 76.27888733 -23.70179749 77.12025452 C-23.06322815 78.3486908 -23.06322815 78.3486908 -22.41175842 79.60194397 C-21.92481506 80.47036926 -21.4378717 81.33879456 -20.93617249 82.23353577 C-20.38219788 83.22337463 -19.82822327 84.2132135 -19.25746155 85.23304749 C-18.66159241 86.28895081 -18.06572327 87.34485413 -17.45179749 88.43275452 C-16.83788147 89.52475159 -16.22396545 90.61674866 -15.59144592 91.74183655 C-5.10337854 110.71124692 -5.10337854 110.71124692 6.29820251 129.12025452 C9.10630396 129.63130374 9.10630396 129.63130374 12.39976501 129.63197327 C13.61148376 129.66742249 14.82320251 129.7028717 16.07164001 129.73939514 C17.34265564 129.76195374 18.61367126 129.78451233 19.92320251 129.80775452 C21.20195251 129.84191467 22.48070251 129.87607483 23.79820251 129.91127014 C26.96478184 129.9939793 30.13107615 130.06305537 33.29820251 130.12025452 C32.70805066 135.62833849 31.73156483 140.76903521 30.29820251 146.12025452 C29.32548401 145.96145813 29.32548401 145.96145813 28.33311462 145.79945374 C20.87041363 144.7859271 13.39928345 144.24353081 6.29820251 147.12025452 C0.37502887 152.57548767 -2.7669325 160.2904655 -6.06159973 167.5088501 C-9.22874344 174.43755761 -13.12073336 180.89385574 -17.01429749 187.43275452 C-18.26621492 189.57128299 -19.51274132 191.71298119 -20.75257874 193.85853577 C-21.27505188 194.7561261 -21.79752502 195.65371643 -22.33583069 196.57850647 C-22.78659973 197.41728333 -23.23736877 198.25606018 -23.70179749 199.12025452 C-24.14450989 199.94324036 -24.58722229 200.7662262 -25.04335022 201.614151 C-25.95956145 204.15462266 -25.95956145 204.15462266 -24.80238342 206.71302795 C-24.26903381 207.62600647 -23.7356842 208.53898499 -23.18617249 209.47962952 C-22.59916565 210.5046759 -22.01215881 211.52972229 -21.40736389 212.58583069 C-20.76202698 213.66969055 -20.11669006 214.75355042 -19.45179749 215.87025452 C-18.80517151 216.98827454 -18.15854553 218.10629456 -17.49232483 219.25819397 C-15.57966098 222.55617631 -13.64367758 225.83941264 -11.70179749 229.12025452 C-10.73979513 230.76416309 -9.77872982 232.40862069 -8.81898499 234.05384827 C-7.28336469 236.68053665 -5.73667922 239.29995453 -4.17835999 241.91322327 C-0.62623715 247.94734991 2.82422856 254.0408001 6.29820251 260.12025452 C28.07820251 260.12025452 49.85820251 260.12025452 72.29820251 260.12025452 C76.58820251 252.53025452 80.87820251 244.94025452 85.29820251 237.12025452 C86.61820251 235.47025452 87.93820251 233.82025452 89.29820251 232.12025452 C89.63593689 232.94009827 89.97367126 233.75994202 90.32164001 234.60462952 C90.76765564 235.68228577 91.21367126 236.75994202 91.67320251 237.87025452 C92.11406189 238.93759827 92.55492126 240.00494202 93.00914001 241.10462952 C94.1784518 244.01934695 94.1784518 244.01934695 95.52476501 246.19837952 C96.63299944 248.95217415 96.22359709 250.30312412 95.29820251 253.12025452 C93.61877033 256.13068897 91.86006047 259.0451725 90.00523376 261.94837952 C88.42225134 264.55831469 87.29820251 266.51534231 87.29820251 269.60853577 C88.67084623 273.05623073 90.48727743 276.15636351 92.42320251 279.30775452 C93.32828156 280.8121015 94.23182247 282.31737455 95.13414001 283.82337952 C95.633974 284.65546936 96.13380798 285.4875592 96.64878845 286.34486389 C100.48820684 292.80527068 104.2005098 299.34059824 107.94322205 305.85731506 C108.55020935 306.91217102 109.15719666 307.96702698 109.78257751 309.05384827 C110.31592712 309.98253723 110.84927673 310.9112262 111.39878845 311.86805725 C112.02559509 312.94128235 112.65240173 314.01450745 113.29820251 315.12025452 C113.63699432 315.96571838 113.97578613 316.81118225 114.32484436 317.68226624 C115.70644738 320.70347013 116.91722868 322.78979329 119.29820251 325.12025452 C124.2859738 326.5900719 129.17893826 326.42758874 134.32164001 326.31556702 C135.79281847 326.31935739 137.26399159 326.32755138 138.73512268 326.33995056 C142.59291572 326.3607054 146.4478671 326.32192222 150.30528259 326.27046204 C154.24696561 326.22850114 158.18839997 326.24321357 162.13023376 326.25306702 C169.85375289 326.26406564 177.57514909 326.21213075 185.29820251 326.12025452 C185.59780884 325.35211929 185.89741516 324.58398407 186.20610046 323.79257202 C187.4217589 320.8179184 188.90130916 318.1376553 190.50132751 315.35072327 C191.14634216 314.22601624 191.79135681 313.1013092 192.45591736 311.94252014 C192.79757935 311.34995422 193.13924133 310.75738831 193.49125671 310.14686584 C194.56057019 308.28623446 195.61906136 306.4197811 196.67564392 304.55189514 C200.18545161 298.37167836 203.78025447 292.301252 207.68101501 286.35853577 C208.35358337 285.30448547 209.02615173 284.25043518 209.71910095 283.16444397 C210.99286945 281.18010871 212.30476605 279.21958527 213.65855408 277.28895569 C215.42829469 274.48786794 216.63002091 272.3702029 217.29820251 269.12025452 C215.61082758 263.08146978 212.14257501 258.29225625 208.54820251 253.24525452 C206.94346355 250.15971984 207.31598976 249.05949275 208.32164001 245.62416077 C210.21764693 240.86212533 212.45055007 236.39173318 215.29820251 232.12025452 C216.44525541 233.97366697 217.59074037 235.82804976 218.73570251 237.68275452 C219.09845779 238.23289719 219.46121307 238.78303986 219.83496094 239.34985352 C221.89486855 242.53634682 223.4888679 245.41831679 224.53257751 249.07728577 C226.1141184 253.80291979 227.98917254 257.40459781 232.29820251 260.12025452 C242.33891552 262.73002407 253.2250185 261.90137319 263.51127625 261.61378479 C267.43273889 261.52026382 271.35430838 261.51250175 275.27671814 261.49720764 C282.95316362 261.45479046 290.62401664 261.31790531 298.29820251 261.12025452 C298.75329193 259.95953178 298.75329193 259.95953178 299.21757507 258.77536011 C300.3263916 256.05099383 301.62563793 253.57187161 303.06382751 251.00697327 C303.61780212 250.01721497 304.17177673 249.02745667 304.74253845 248.00770569 C305.33840759 246.9517218 305.93427673 245.89573792 306.54820251 244.80775452 C307.16211853 243.71503235 307.77603455 242.62231018 308.40855408 241.49647522 C313.46659237 232.52405014 318.63154018 223.61598809 323.85386658 214.73817444 C324.40784119 213.79562805 324.9618158 212.85308167 325.53257751 211.88197327 C326.26299255 210.64386902 326.26299255 210.64386902 327.00816345 209.38075256 C327.43387634 208.63478821 327.85958923 207.88882385 328.29820251 207.12025452 C328.74325134 206.47902649 329.18830017 205.83779846 329.64683533 205.17713928 C330.57016053 203.00557121 330.57016053 203.00557121 329.27867126 200.47669983 C328.68699158 199.47735413 328.09531189 198.47800842 327.48570251 197.44837952 C326.82844177 196.31988586 326.17118103 195.19139221 325.4940033 194.02870178 C324.76229461 192.8090844 324.03035586 191.58960501 323.29820251 190.37025452 C322.56342527 189.1197756 321.83020359 187.8683814 321.09849548 186.61610413 C319.21698419 183.4034047 317.31804197 180.20138943 315.41477966 177.00154114 C313.01126125 172.95192661 310.635476 168.88606125 308.25914001 164.82044983 C307.05855679 162.76860202 305.8530239 160.71964031 304.64195251 158.67396545 C304.09796814 157.75002991 303.55398376 156.82609436 302.99351501 155.87416077 C302.51930115 155.07308899 302.04508728 154.27201721 301.5565033 153.44667053 C300.29820251 151.12025452 300.29820251 151.12025452 298.29820251 146.12025452 C290.04820251 146.12025452 281.79820251 146.12025452 273.29820251 146.12025452 C272.30820251 140.84025452 271.31820251 135.56025452 270.29820251 130.12025452 C273.10384705 130.41222717 273.10384705 130.41222717 275.96617126 130.71009827 C289.01681632 131.88750378 289.01681632 131.88750378 300.67466736 127.20228577 C304.81992245 121.86853096 307.28278069 115.68037094 309.82798767 109.46742249 C312.34523279 103.73653067 315.62967175 98.47053224 318.86070251 93.12025452 C320.5364011 90.26981324 322.20379671 87.41496828 323.8611908 84.55384827 C324.75033902 83.04806683 325.66588771 81.55713061 326.62193298 80.09291077 C328.41519972 77.28752643 329.3381661 75.63131717 329.0745697 72.26039124 C328.2602066 68.96657417 327.13230521 66.60679995 325.41148376 63.69056702 C324.80900818 62.65867249 324.20653259 61.62677795 323.58580017 60.56361389 C322.60812683 58.921026 322.60812683 58.921026 321.61070251 57.24525452 C320.59666324 55.51561079 319.58262895 53.78596411 318.56895447 52.05610657 C317.52020014 50.26988917 316.4671605 48.4862634 315.41294861 46.70326233 C312.68478642 42.0865657 309.98648864 37.45262828 307.28721619 32.81898499 C306.06136354 30.71536725 304.83371219 28.61279648 303.60411072 26.5113678 C302.77592834 25.09573547 302.77592834 25.09573547 301.93101501 23.65150452 C301.44519958 22.8219928 300.95938416 21.99248108 300.45884705 21.13783264 C299.70062093 19.81978876 298.97822406 18.48029761 298.29820251 17.12025452 C279.81820251 16.79025452 261.33820251 16.46025452 242.29820251 16.12025452 C241.63820251 12.49025452 240.97820251 8.86025452 240.29820251 5.12025452 C239.96820251 3.47025452 239.63820251 1.82025452 239.29820251 0.12025452 C247.990284 -0.27522374 256.6792367 -0.5764164 265.37837791 -0.76055241 C269.41919269 -0.84898281 273.4538221 -0.96861279 277.49107361 -1.16221619 C303.43565919 -2.37360617 303.43565919 -2.37360617 309.65711975 1.64329529 C313.2823741 5.50359735 315.01654639 9.94016002 316.56858826 14.93943787 C317.62148809 18.08655492 319.28162409 20.74479467 321.02867126 23.55384827 C322.18171085 25.55474953 323.33404881 27.55605526 324.48570251 29.55775452 C325.10719177 30.63597473 325.72868103 31.71419495 326.3690033 32.8250885 C329.41348439 38.10735093 332.4546029 43.39153157 335.49255371 48.67755127 C336.88343851 51.09709947 338.2755049 53.51596667 339.66773987 55.93473816 C340.65928859 57.65856489 341.64904657 59.38342126 342.63877869 61.10829163 C343.23537292 62.14477844 343.83196716 63.18126526 344.44664001 64.24916077 C344.97434998 65.16769836 345.50205994 66.08623596 346.04576111 67.03260803 C347.13254922 69.03546311 347.13254922 69.03546311 348.29820251 70.12025452 C348.95866192 75.56700612 347.06147907 78.9185696 344.23570251 83.37025452 C343.31592634 84.87435908 342.39808658 86.37964886 341.48179626 87.88587952 C340.97503357 88.71281311 340.46827087 89.5397467 339.94615173 90.39173889 C336.13990271 96.6937595 332.52280052 103.10868532 328.86436462 109.49720764 C325.99744621 114.49003603 323.11491438 119.46204463 320.07945251 124.35462952 C319.60443298 125.12806702 319.12941345 125.90150452 318.63999939 126.69837952 C317.77535666 128.09791767 316.8973681 129.48934116 316.00328064 130.87025452 C314.23038501 133.75537698 313.25556854 135.57297918 313.52232361 138.99720764 C314.33249292 142.25827934 315.44301363 144.59352595 317.14976501 147.47962952 C317.74684265 148.50080872 318.34392029 149.52198792 318.95909119 150.57411194 C319.60724792 151.66183899 320.25540466 152.74956604 320.92320251 153.87025452 C321.93807365 155.6000282 322.95292977 157.32981091 323.96688843 159.06011963 C325.02495206 160.86319982 326.08690889 162.66394592 327.14927673 164.4644928 C330.63797835 170.38719069 334.0571311 176.35013253 337.48570251 182.30775452 C338.70820316 184.4263339 339.93085007 186.54482889 341.15367126 188.66322327 C341.69684998 189.61632385 342.24002869 190.56942444 342.79966736 191.55140686 C343.7095697 193.1111971 344.65030799 194.65422368 345.64439392 196.16175842 C347.46322694 198.96349223 348.28750529 200.94276797 348.48960876 204.29603577 C347.17916579 210.14999725 343.34372158 215.28037452 340.23570251 220.30775452 C338.77081731 222.71734699 337.31425539 225.13194646 335.85679626 227.54603577 C335.48142731 228.1651886 335.10605835 228.78434143 334.71931458 229.42225647 C329.94354543 237.31822875 325.41875104 245.35684693 320.87998962 253.39051819 C319.68518814 255.49688227 318.47255321 257.59328758 317.2376709 259.67640686 C315.25631735 263.06036154 315.25631735 263.06036154 313.79698181 266.54879761 C311.89319117 270.4818711 310.38191512 273.00254714 307.29820251 276.12025452 C301.47703798 277.9329574 295.93031891 277.64477627 289.89195251 277.38978577 C288.19951975 277.36550932 286.50699502 277.34701832 284.81443787 277.33404541 C280.37973995 277.28462883 275.95066355 277.15717058 271.51817322 277.01289368 C266.98729013 276.87939916 262.4554893 276.82042881 257.92320251 276.75502014 C249.045745 276.61599626 240.17244277 276.39443009 231.29820251 276.12025452 C231.00647156 277.04032288 230.7147406 277.96039124 230.41416931 278.90834045 C229.095453 282.70379697 227.18970146 285.95829692 225.11070251 289.37025452 C224.21103334 290.87342428 223.31268487 292.37738499 222.41539001 293.88197327 C221.67434021 295.12213196 221.67434021 295.12213196 220.9183197 296.38734436 C217.81253029 301.6263749 214.77735368 306.90631922 211.73570251 312.18275452 C211.13540222 313.22141663 210.53510193 314.26007874 209.91661072 315.33021545 C206.42787793 321.37867003 202.97972766 327.44826007 199.56016541 333.536026 C199.1480909 334.2691375 198.73601639 335.00224899 198.31145477 335.75757599 C197.30680339 337.54500401 196.30246972 339.33261061 195.29820251 341.12025452 C184.32963579 341.67893913 173.36449596 342.10396157 162.38455009 342.36374664 C157.28372981 342.48852635 152.19269834 342.6572292 147.09751892 342.93080139 C114.32426509 344.6444798 114.32426509 344.6444798 106.16719055 338.92481995 C101.22537378 333.38181178 98.63840167 327.07890758 96.33164978 320.0919342 C94.93460976 316.07474282 92.91985888 312.6635733 90.67710876 309.07337952 C89.40379567 306.83967543 88.13160291 304.60533222 86.86070251 302.37025452 C85.5708825 300.10431945 84.28052272 297.83869154 82.98960876 295.57337952 C82.44506042 294.61592834 81.90051208 293.65847717 81.33946228 292.67201233 C81.0238887 292.15754044 80.70831512 291.64306854 80.38317871 291.11300659 C79.29820251 289.12025452 79.29820251 289.12025452 78.10079956 286.06439209 C76.49348557 282.46925909 75.07998158 279.92202978 72.29820251 277.12025452 C67.40794751 275.82960876 62.92317729 276.04706713 57.91111565 276.43042946 C55.4392637 276.61165405 52.97800977 276.70398511 50.50061035 276.7723999 C43.47280332 276.97876069 36.45625655 277.31395178 29.4405365 277.77430725 C0.65208146 279.58577646 0.65208146 279.58577646 -6.61747742 273.79948425 C-11.36276577 267.95472353 -14.00824464 261.48884693 -16.4393158 254.42549133 C-18.55490983 248.88676601 -21.67461756 243.97176996 -24.76429749 238.93275452 C-25.91654405 236.96623142 -27.06545966 234.99774912 -28.20960999 233.02650452 C-30.59995834 228.95817224 -33.03793458 224.92283242 -35.50648499 220.90150452 C-36.11613098 219.89885559 -36.72577698 218.89620667 -37.35389709 217.86317444 C-38.51670398 215.95463198 -39.69144779 214.05329503 -40.879776 212.16053772 C-41.39725403 211.30806458 -41.91473206 210.45559143 -42.44789124 209.57728577 C-43.13903015 208.46317322 -43.13903015 208.46317322 -43.84413147 207.32655334 C-44.96479225 204.44371489 -44.64223889 203.048377 -43.70179749 200.12025452 C-42.44935608 197.57850647 -42.44935608 197.57850647 -40.85023499 194.85853577 C-40.25323792 193.83421448 -39.65624084 192.80989319 -39.04115295 191.75453186 C-38.068797 190.11025208 -38.068797 190.11025208 -37.07679749 188.43275452 C-36.06092983 186.69517037 -35.04507431 184.95757899 -34.029953 183.21955872 C-32.9707305 181.40778031 -31.90857053 179.59774447 -30.84632874 177.78773499 C-28.72730002 174.17101701 -26.63294325 170.54045722 -24.54554749 166.90541077 C-24.04300949 166.03076927 -24.04300949 166.03076927 -23.53031921 165.13845825 C-21.92440438 162.34289262 -20.31946796 159.54676688 -18.71498108 156.75038147 C-18.13055237 155.73548645 -17.54612366 154.72059143 -16.94398499 153.67494202 C-16.39581116 152.71942444 -15.84763733 151.76390686 -15.28285217 150.7794342 C-13.4738556 147.73687851 -11.51745321 144.81814873 -9.45619202 141.9410553 C-8.36574225 139.3091542 -8.86983395 137.81756521 -9.70179749 135.12025452 C-10.94732469 132.51390747 -10.94732469 132.51390747 -12.55335999 129.85853577 C-13.15035706 128.83429504 -13.74735413 127.81005432 -14.36244202 126.754776 C-15.01067932 125.65850891 -15.65891663 124.56224182 -16.32679749 123.43275452 C-17.3426413 121.6941035 -18.35847415 119.95544595 -19.37364197 118.21640015 C-20.43271507 116.40412093 -21.49478437 114.59362296 -22.55726624 112.78334045 C-26.01091166 106.89245071 -29.41637679 100.97372948 -32.82679749 95.05775452 C-33.4411969 93.99532532 -34.05559631 92.93289612 -34.68861389 91.83827209 C-35.83797618 89.84867432 -36.98110145 87.8554555 -38.11683655 85.85804749 C-39.14572384 84.08079208 -40.20868911 82.32267732 -41.31019592 80.5894928 C-42.02610901 79.43102844 -42.02610901 79.43102844 -42.75648499 78.24916077 C-43.18171448 77.59117493 -43.60694397 76.93318909 -44.0450592 76.25526428 C-45.27084317 72.27032719 -43.15358237 68.99846942 -41.33583069 65.46498108 C-40.81335754 64.57262756 -40.2908844 63.68027405 -39.75257874 62.76087952 C-39.15912659 61.74034485 -38.56567444 60.71981018 -37.95423889 59.66835022 C-37.31405823 58.57997864 -36.67387756 57.49160706 -36.01429749 56.37025452 C-35.00099792 54.63199166 -33.98770771 52.89372326 -32.97499084 51.15512085 C-31.92242099 49.34945895 -30.86756527 47.54514499 -29.81263733 45.74085999 C-27.09927154 41.09403574 -24.42087273 36.42732355 -21.74012756 31.76161194 C-16.98895513 23.49540853 -12.22589051 15.23739993 -7.32679749 7.05775452 C-6.96344299 6.45036438 -6.6000885 5.84297424 -6.22572327 5.21717834 C-3.16240405 0.14075569 -3.16240405 0.14075569 0 0 Z " fill="#1CBAB3" transform="translate(102.70179748535156,108.87974548339844)"/>
<path d="M0 0 C10.94368371 -0.30170491 21.88637321 -0.53243467 32.83337402 -0.67355824 C37.91726922 -0.74130767 42.99831284 -0.83311509 48.08056641 -0.98071289 C52.98916401 -1.12236905 57.89502728 -1.19976878 62.80551147 -1.23340416 C64.67494782 -1.2573579 66.54424024 -1.3041439 68.4125061 -1.37449074 C80.26199344 -1.80276555 80.26199344 -1.80276555 85 0 C89.03035187 3.88504206 90.85887473 7.81302603 93 13 C93.75529832 14.34277413 94.53156468 15.67442623 95.34521484 16.98266602 C96.26874756 18.60192993 96.26874756 18.60192993 97.2109375 20.25390625 C97.55001129 20.8475145 97.88908508 21.44112274 98.23843384 22.05271912 C98.93651958 23.27584898 99.63358682 24.49956075 100.32958984 25.72387695 C101.39295467 27.59407792 102.45991291 29.46219539 103.52734375 31.33007812 C109.15951996 41.20650903 109.15951996 41.20650903 111 45 C108.17335551 44.48606464 105.5001563 43.84620194 102.75 43 C99.30032354 41.87668338 99.30032354 41.87668338 96.8553772 42.10327148 C94.20325148 42.1978914 92.45520094 42.04226562 90 41 C88.23645943 38.27587756 87.17587086 35.49211979 85.98257446 32.47631836 C83.54293892 26.51308466 80.83616045 21.34560483 76 17 C65.99487867 13.1244623 54.506553 14.32000055 43.9800415 14.88848877 C40.03270207 15.07539532 36.08375352 15.12315223 32.1328125 15.18359375 C24.41387645 15.32172926 16.71081084 15.61110175 9 16 C8.69092712 16.77608109 8.38185425 17.55216217 8.06341553 18.35176086 C-0.34319558 39.28686662 -0.34319558 39.28686662 -7.59375 42.68359375 C-11.13496072 43.11111171 -14.44106285 43.13922493 -18 43 C-20.43535908 43.4979648 -22.64092557 44.21364186 -25 45 C-23.5854522 41.20902916 -21.83942862 37.81143117 -19.8046875 34.31640625 C-19.17046875 33.22263672 -18.53625 32.12886719 -17.8828125 31.00195312 C-17.22023437 29.86693359 -16.55765625 28.73191406 -15.875 27.5625 C-14.58041325 25.33481898 -13.28614382 23.10695352 -11.9921875 20.87890625 C-11.38100067 19.82804337 -10.76981384 18.77718048 -10.1401062 17.69447327 C-7.993635 13.99577524 -5.86981474 10.28436938 -3.75048828 6.57006836 C-3.38693741 5.93336967 -3.02338654 5.29667099 -2.64881897 4.64067841 C-1.76566377 3.09390865 -0.88280055 1.54697219 0 0 Z " fill="#16BBA3" transform="translate(212,44)"/>
</svg>
